<svg width="24" height="24" viewBox="0 0 24 24" fill="none" xmlns="http://www.w3.org/2000/svg">
<path d="M3.92891 8.58373C2.06681 11.8151 3.25058 16.7188 5.30976 19.6921C6.33762 21.1786 7.37825 22.5129 8.80359 22.5129C8.83045 22.5129 8.85739 22.5124 8.88498 22.5113C9.55464 22.4846 10.0386 22.2784 10.5065 22.0792C11.0318 21.8553 11.575 21.6238 12.4272 21.6238C13.2379 21.6238 13.7552 21.8478 14.2556 22.0643C14.7487 22.2776 15.2566 22.4983 16.007 22.4842C17.6125 22.4543 18.5983 21.0145 19.468 19.7443C20.3755 18.418 20.8308 17.1303 20.9844 16.6382L20.9906 16.6187C21.0199 16.5312 20.9785 16.4357 20.8947 16.3973C20.8924 16.3962 20.8839 16.3926 20.8815 16.3916C20.5988 16.276 18.1187 15.1758 18.0926 12.1771C18.0684 9.74079 19.9531 8.45064 20.3311 8.2168L20.3488 8.20583C20.3897 8.17947 20.4182 8.13765 20.4279 8.08985C20.4376 8.04211 20.4275 7.99243 20.4 7.95227C19.0991 6.04851 17.1052 5.76159 16.3025 5.72707C16.186 5.71544 16.0657 5.70959 15.945 5.70959C15.0021 5.70959 14.0989 6.06569 13.3733 6.35181C12.8724 6.54933 12.4398 6.7199 12.1414 6.7199C11.8061 6.7199 11.371 6.54723 10.8671 6.34734C10.1933 6.07992 9.42963 5.7769 8.62117 5.7769C8.60189 5.7769 8.5829 5.77712 8.56419 5.77748C6.6844 5.80514 4.90817 6.88058 3.92891 8.58373Z" fill="#462A8C"/>
<path d="M16.3044 0.487077C15.1661 0.53344 13.8006 1.23416 12.9844 2.19016C12.2907 2.99371 11.6131 4.33347 11.7916 5.68391C11.8028 5.76841 11.8716 5.83362 11.9566 5.84019C12.0334 5.84618 12.1119 5.84922 12.19 5.84929C13.3031 5.84929 14.5038 5.2335 15.3238 4.24197C16.1869 3.19497 16.6233 1.85132 16.4913 0.647759C16.4809 0.553444 16.3979 0.483394 16.3044 0.487077Z" fill="#462A8C"/>
</svg>
