<svg width="34" height="30" viewBox="0 0 34 30" fill="none" xmlns="http://www.w3.org/2000/svg">
<path fill-rule="evenodd" clip-rule="evenodd" d="M13.0776 0H20.9217C22.5662 0.0114713 23.8617 0.865889 24.6129 2.34569C24.7208 2.5568 24.8493 2.8164 25.0039 3.13537L26.0762 5.38961C26.135 5.5138 26.2591 5.59241 26.4289 5.59283L26.7814 5.60245C30.6328 5.80374 33.6663 8.98708 33.6663 12.8547V22.7377C33.6663 26.7476 30.4112 30 26.3963 30H7.60467C3.58849 30 0.333008 26.748 0.333008 22.7377V12.8547C0.333008 8.84331 3.58796 5.59241 7.52495 5.59495L7.64968 5.58954C7.76856 5.57429 7.87313 5.49867 7.92428 5.3907L8.74299 3.66285L9.38556 2.34736C10.1406 0.864892 11.4339 0.0114661 13.0776 0ZM20.913 2.49734L13.0951 2.49731C12.4162 2.50204 11.9576 2.80469 11.614 3.47935C11.5137 3.67654 11.3909 3.92555 11.241 4.23525L10.1846 6.45783C9.76772 7.33777 8.93059 7.94304 7.88869 8.07419L7.60467 8.08977C4.96857 8.08977 2.83301 10.2227 2.83301 12.8547V22.7377C2.83301 25.3687 4.9692 27.5026 7.60467 27.5026H26.3963C29.0304 27.5026 31.1663 25.3685 31.1663 22.7377V12.8547C31.1663 10.3173 29.1757 8.22836 26.6835 8.09768L26.1435 8.07861C25.1407 7.98983 24.252 7.37735 23.816 6.45675L22.6517 4.01404L22.3848 3.47836C22.043 2.80504 21.5836 2.50204 20.913 2.49734ZM10.4524 17.2146C10.4233 13.6292 13.3882 10.654 17.0071 10.6581L17.3437 10.667C20.7994 10.8468 23.5533 13.7188 23.5473 17.2183C23.5412 20.8182 20.6047 23.7535 17.0031 23.7576C13.3951 23.7596 10.4503 20.8122 10.4524 17.2146ZM21.0474 17.214C21.0512 14.9807 19.234 13.158 17.0042 13.1554L16.7386 13.1639C14.6296 13.3011 12.9352 15.0869 12.9523 17.2052C12.9511 19.4343 14.7766 21.2615 17.0009 21.2602C19.2232 21.2577 21.0435 19.4381 21.0474 17.214ZM24.673 13.1795C24.8511 13.2511 25.0101 13.2931 25.1712 13.3096L25.3337 13.3177L25.499 13.3096C25.8818 13.2716 26.2407 13.1026 26.5139 12.8279C26.83 12.4924 27.0003 12.0894 27.0003 11.6536C27.0003 11.4268 26.9539 11.2019 26.8618 10.9951L26.8239 10.8978C26.7599 10.7606 26.6445 10.5979 26.5075 10.4631C26.0505 10.0067 25.3192 9.86131 24.7043 10.1047C24.497 10.1959 24.3453 10.2996 24.1973 10.4284C24.0027 10.6177 23.895 10.7918 23.8041 10.9982C23.7134 11.2019 23.667 11.4268 23.667 11.6536C23.667 12.0808 23.8395 12.4948 24.1375 12.8114C24.3033 12.9797 24.4748 13.0915 24.673 13.1795Z" fill="#8E8D91"/>
</svg>
