<svg width="20" height="20" viewBox="0 0 20 20" fill="none" xmlns="http://www.w3.org/2000/svg">
<path fill-rule="evenodd" clip-rule="evenodd" d="M10.058 0.000325575C6.54635 -0.0137865 3.28554 1.80709 1.46059 4.80019C-0.364589 7.79367 -0.487117 11.5227 1.13765 14.6292L1.32147 14.9876C1.39175 15.1193 1.40531 15.2614 1.36458 15.3927C1.10204 16.0866 0.871363 16.8358 0.687298 17.597L0.667756 17.761C0.667756 18.5264 1.07616 19.0523 1.88671 19.0344L2.02167 19.0181C2.75798 18.8555 3.4831 18.646 4.19261 18.391C4.28665 18.3672 4.4407 18.3764 4.57971 18.4333L5.26224 18.8195C5.26378 18.8243 5.26493 18.8279 5.27208 18.832L5.31788 18.8481C8.99294 20.7804 13.4812 20.2474 16.5997 17.508C19.7187 14.7682 20.8199 10.3902 19.3675 6.50396C17.9153 2.61811 14.2115 0.0308507 10.058 0.000325575ZM9.76749 1.39911L10.0484 1.39471C13.6231 1.4219 16.8109 3.6487 18.0605 6.99243C19.31 10.3358 18.3626 14.1022 15.6788 16.4597L15.4587 16.6467C12.8626 18.7781 9.25821 19.2077 6.23269 17.7469L5.94496 17.6027L5.95729 17.6043L5.93909 17.5993L5.51677 17.357C5.36471 17.271 5.24408 17.206 5.14685 17.1591C4.6837 16.9682 4.21354 16.94 3.77133 17.0618L3.35272 17.2056C3.07605 17.297 2.80372 17.3795 2.53273 17.4542L2.13767 17.5574L2.04356 17.925C2.21419 17.2193 2.42804 16.5247 2.68389 15.8452C2.84853 15.3184 2.79818 14.7906 2.55755 14.3403L2.37662 13.9874C0.976269 11.31 1.08168 8.10199 2.65196 5.52657C4.17338 3.03129 6.85494 1.48244 9.76749 1.39911ZM4.4746 10.0003C4.4746 9.37008 4.98586 8.85966 5.61596 8.85966C6.24606 8.85966 6.75732 9.37008 6.75732 10.0003C6.75732 10.6305 6.24606 11.1409 5.61596 11.1409C4.98586 11.1409 4.4746 10.6305 4.4746 10.0003ZM8.91148 10.0003C8.91148 9.37008 9.42274 8.85966 10.0528 8.85966C10.6829 8.85966 11.1942 9.37008 11.1942 10.0003C11.1942 10.6305 10.6829 11.1409 10.0528 11.1409C9.42274 11.1409 8.91148 10.6305 8.91148 10.0003ZM14.4897 8.85966C13.8596 8.85966 13.3484 9.37008 13.3484 10.0003C13.3484 10.6305 13.8596 11.1409 14.4897 11.1409C15.1198 11.1409 15.6311 10.6305 15.6311 10.0003C15.6311 9.37008 15.1198 8.85966 14.4897 8.85966Z" fill="#1D1B23"/>
</svg>
