<svg width="28" height="28" viewBox="0 0 28 28" fill="none" xmlns="http://www.w3.org/2000/svg">
<path fill-rule="evenodd" clip-rule="evenodd" d="M23.7294 8.93589C24.5111 9.54139 24.9906 10.4409 25.0722 11.4197L25.0839 11.6542V21.1147C25.0839 23.5531 23.1577 25.5364 20.7439 25.6647H18.4222C17.3127 25.6426 16.4156 24.7792 16.3339 23.6942L16.3222 23.5297V20.1942C16.3222 19.8314 16.0527 19.5292 15.6922 19.4697L15.5872 19.4581H12.4711C12.0989 19.4697 11.7956 19.7381 11.7489 20.0881L11.7372 20.1942V23.5192C11.7372 23.5881 11.7244 23.6697 11.7139 23.7281L11.7022 23.7526L11.6894 23.8331C11.5506 24.8259 10.7339 25.5831 9.7189 25.6542L9.56724 25.6647H7.4789C5.04057 25.6647 3.04557 23.7526 2.91724 21.3481V11.6542C2.92774 10.6614 3.36057 9.73973 4.0839 9.09806L11.3522 3.25306C12.8339 2.07589 14.9106 2.02923 16.4377 3.11306L16.6256 3.25306L23.7294 8.93589ZM23.4494 21.3014L23.4622 21.1147V11.6647C23.4494 11.1642 23.2406 10.6964 22.8789 10.3476L22.7272 10.2181L15.6106 4.52473C14.7239 3.81306 13.4639 3.77923 12.5306 4.39639L12.3544 4.52473L5.26107 10.2426C4.8539 10.5447 4.6089 10.9997 4.55057 11.4781L4.53774 11.6647V21.1147C4.53774 22.6664 5.75107 23.9381 7.29224 24.0314H9.56724C9.8239 24.0314 10.0456 23.8576 10.0794 23.6126L10.1039 23.4026L10.1156 23.3431V20.1942C10.1156 18.9459 11.0722 17.9309 12.2972 17.8364H15.5872C16.8344 17.8364 17.8494 18.7942 17.9439 20.0192V23.5297C17.9439 23.7747 18.1189 23.9859 18.3522 24.0314H20.5211C22.0844 24.0314 23.3561 22.8309 23.4494 21.3014Z" fill="#8E8D91"/>
</svg>
