<svg width="22" height="23" viewBox="0 0 22 23" fill="none" xmlns="http://www.w3.org/2000/svg">
<path d="M20.4403 11.05L11.2503 20.24C10.1244 21.3659 8.59747 21.9984 7.00529 21.9984C5.41311 21.9984 3.88613 21.3659 2.76029 20.24C1.63445 19.1142 1.00195 17.5872 1.00195 15.995C1.00195 14.4029 1.63445 12.8759 2.76029 11.75L11.9503 2.56004C12.7009 1.80948 13.7188 1.38782 14.7803 1.38782C15.8417 1.38782 16.8597 1.80948 17.6103 2.56004C18.3609 3.3106 18.7825 4.32859 18.7825 5.39004C18.7825 6.4515 18.3609 7.46948 17.6103 8.22004L8.41029 17.41C8.03501 17.7853 7.52602 17.9962 6.99529 17.9962C6.46456 17.9962 5.95557 17.7853 5.58029 17.41C5.20501 17.0348 4.99418 16.5258 4.99418 15.995C4.99418 15.4643 5.20501 14.9553 5.58029 14.58L14.0703 6.10004" stroke="#462A8C" stroke-width="1.6" stroke-linecap="round" stroke-linejoin="round"/>
</svg>
