<svg width="28" height="28" viewBox="0 0 28 28" fill="none" xmlns="http://www.w3.org/2000/svg">
<path fill-rule="evenodd" clip-rule="evenodd" d="M14.0051 2.33337C10.5821 2.33337 7.80715 5.12012 7.80715 8.55774C7.80715 11.9954 10.5821 14.7821 14.0051 14.7821C17.4281 14.7821 20.203 11.9954 20.203 8.55774C20.203 5.12012 17.4281 2.33337 14.0051 2.33337ZM14.0051 4.02232C16.4993 4.02232 18.5213 6.0529 18.5213 8.55774C18.5213 11.0626 16.4993 13.0932 14.0051 13.0932C11.5109 13.0932 9.48893 11.0626 9.48893 8.55774C9.48893 6.0529 11.5109 4.02232 14.0051 4.02232ZM11.4685 17.2911C10.5611 17.3541 9.64399 17.4836 8.73935 17.6775C6.99329 18.0371 5.59641 18.7557 5.00186 19.9499C4.77761 20.4169 4.66487 20.917 4.66677 21.4232C4.6661 21.9258 4.77793 22.4265 4.99414 22.8845C5.56501 24.065 6.79919 24.733 8.4657 25.1033L8.76423 25.1656C9.64431 25.3642 10.5617 25.4978 11.4853 25.5606C11.5639 25.5836 11.7514 25.6051 11.956 25.6155L12.1243 25.6218C12.2109 25.6238 12.3091 25.6244 12.4554 25.6244C13.7829 25.6974 15.1591 25.6761 16.5288 25.5595C17.2588 25.5096 17.9937 25.4141 18.7224 25.2742L19.2677 25.161C21.0672 24.806 22.4147 24.1309 23.0051 22.8859C23.4428 21.9615 23.4428 20.8888 23.0053 19.9649C22.4164 18.723 21.0861 18.0535 19.254 17.6761C18.5352 17.5226 17.8048 17.4091 17.0692 17.3366L16.5314 17.2911C14.847 17.1425 13.1529 17.1425 11.4685 17.2911ZM16.3842 18.9735L16.399 18.9747C17.2433 19.0341 18.0824 19.1526 18.9102 19.3294C20.271 19.6097 21.1945 20.0745 21.4867 20.6906C21.7067 21.1552 21.7067 21.6951 21.4865 22.1602C21.2135 22.7359 20.3841 23.1807 19.1853 23.4525L18.9228 23.5081C18.0787 23.6964 17.2424 23.8178 16.4006 23.8755C15.0943 23.9866 13.7959 24.0067 12.5006 23.9366L12.0414 23.9288C11.914 23.9223 11.8065 23.91 11.707 23.89C10.9186 23.8305 10.2092 23.7363 9.5204 23.5998L9.10913 23.5127C7.74408 23.2452 6.81243 22.7784 6.51036 22.1538C6.40467 21.9298 6.34821 21.6771 6.34854 21.4211C6.3476 21.1667 6.40331 20.9196 6.51146 20.6942C6.80517 20.1045 7.79248 19.5966 9.08382 19.3306C9.91761 19.1519 10.7563 19.0335 11.6002 18.9748C13.2021 18.8336 14.7978 18.8336 16.3842 18.9735Z" fill="#8E8D91"/>
</svg>
