<svg width="28" height="28" viewBox="0 0 28 28" fill="none" xmlns="http://www.w3.org/2000/svg">
<path fill-rule="evenodd" clip-rule="evenodd" d="M13.5467 2.33337C7.35369 2.33337 2.33325 7.24293 2.33325 13.2992C2.33325 19.3554 7.35369 24.265 13.5467 24.265C16.1955 24.265 18.6297 23.3669 20.5484 21.8651L24.1931 25.4201L24.2901 25.5018C24.6285 25.7467 25.1082 25.7188 25.4144 25.4186C25.7513 25.0883 25.7505 24.5536 25.4129 24.2243L21.811 20.7111C23.6424 18.7593 24.7602 16.1569 24.7602 13.2992C24.7602 7.24293 19.7397 2.33337 13.5467 2.33337ZM13.5467 4.0224C18.7859 4.0224 23.033 8.17576 23.033 13.2992C23.033 18.4226 18.7859 22.576 13.5467 22.576C8.30758 22.576 4.06043 18.4226 4.06043 13.2992C4.06043 8.17576 8.30758 4.0224 13.5467 4.0224Z" fill="#8E8D91"/>
</svg>
