<svg width="21" height="21" viewBox="0 0 21 21" fill="none" xmlns="http://www.w3.org/2000/svg">
<path fill-rule="evenodd" clip-rule="evenodd" d="M0.0214844 11.669C0.0214844 9.28976 1.89542 7.34785 4.24772 7.23882L4.45648 7.234H5.38948C5.8037 7.234 6.13948 7.56978 6.13948 7.984C6.13948 8.36369 5.85733 8.67749 5.49125 8.72715L5.38948 8.734H4.45648C2.89358 8.734 1.61575 9.95601 1.52647 11.4966L1.52148 11.669L1.52148 16.544C1.52148 18.1061 2.74362 19.3837 4.28406 19.473L4.45648 19.478H15.5865C17.1493 19.478 18.4272 18.2561 18.5165 16.7163L18.5215 16.544V11.659C18.5215 10.1016 17.3039 8.82796 15.7693 8.73896L15.5975 8.734H14.6545C14.2403 8.734 13.9045 8.39821 13.9045 7.984C13.9045 7.6043 14.1866 7.29051 14.5527 7.24084L14.6545 7.234H15.5975C17.9687 7.234 19.9046 9.1008 20.0164 11.4446L20.0215 11.659V16.544C20.0215 18.9224 18.1474 20.8642 15.7952 20.9732L15.5865 20.978H4.45648C2.07743 20.978 0.135347 19.1042 0.0263125 16.7527L0.0214844 16.544L0.0214844 11.669ZM9.47968 0.671787C9.6162 0.529251 9.80843 0.440496 10.0214 0.440496C10.2365 0.440496 10.4304 0.53104 10.5672 0.676094L13.4687 3.58956C13.761 3.88305 13.76 4.35792 13.4665 4.65022C13.1997 4.91593 12.783 4.93929 12.4898 4.72083L12.4059 4.64804L10.7714 3.00797L10.7714 13.2315C10.7714 13.6457 10.4356 13.9815 10.0214 13.9815C9.64169 13.9815 9.32789 13.6993 9.27823 13.3333L9.27138 13.2315L9.27138 3.00629L7.63779 4.64795C7.37212 4.9148 6.95551 4.93994 6.66142 4.72274L6.57714 4.65031C6.31028 4.38463 6.28514 3.96802 6.50234 3.67393L6.57478 3.58965L9.47968 0.671787Z" fill="#8E8D91"/>
</svg>
