<svg width="24" height="24" viewBox="0 0 24 24" fill="none" xmlns="http://www.w3.org/2000/svg">
<path d="M2 10C2 8.89543 2.89543 8 4 8H6.29844C6.75258 8 7.1932 7.84544 7.54783 7.56174L10.3753 5.29976C11.0301 4.77595 12 5.24212 12 6.08062V17.9194C12 18.7579 11.0301 19.2241 10.3753 18.7002L7.54783 16.4383C7.1932 16.1546 6.75258 16 6.29844 16H4C2.89543 16 2 15.1046 2 14V10Z" fill="white"/>
<path d="M15 8C15 8 16.5 9.5 16.5 12C16.5 14.5 15 16 15 16" stroke="white" stroke-width="1.8" stroke-linecap="round" stroke-linejoin="round"/>
<path d="M18 4C18 4 21.2 7 21.2 12C21.2 17 18 20 18 20" stroke="white" stroke-width="1.8" stroke-linecap="round" stroke-linejoin="round"/>
</svg>
